<svg width="24" height="23" viewBox="0 0 24 23" fill="none" xmlns="http://www.w3.org/2000/svg">
<path d="M9.37501 5C8.67882 5 8.01114 5.27656 7.51886 5.76884C7.02657 6.26113 6.75001 6.92881 6.75001 7.625V8.62775C6.75 8.95281 6.65946 9.27144 6.48853 9.54792C6.3176 9.82441 6.07304 10.0478 5.78226 10.1931L5.48389 10.3419V11.9081L5.78226 12.0569C6.07317 12.2022 6.31782 12.4258 6.48876 12.7024C6.65969 12.9791 6.75016 13.2979 6.75001 13.6231V14.625C6.75001 15.3212 7.02657 15.9889 7.51886 16.4812C8.01114 16.9734 8.67882 17.25 9.37501 17.25H11.125V15.5H9.37501C9.14295 15.5 8.92039 15.4078 8.75629 15.2437C8.5922 15.0796 8.50001 14.8571 8.50001 14.625V13.6222C8.50006 13.1573 8.40746 12.697 8.22763 12.2682C8.0478 11.8395 7.78434 11.4508 7.45264 11.125C7.78434 10.7992 8.0478 10.4105 8.22763 9.98177C8.40746 9.55301 8.50006 9.0927 8.50001 8.62775V7.625C8.50001 7.39294 8.5922 7.17038 8.75629 7.00628C8.92039 6.84219 9.14295 6.75 9.37501 6.75H11.125V5H9.37501ZM14.625 17.25C15.3212 17.25 15.9889 16.9734 16.4812 16.4812C16.9735 15.9889 17.25 15.3212 17.25 14.625V13.6222C17.25 13.2972 17.3406 12.9786 17.5115 12.7021C17.6824 12.4256 17.927 12.2022 18.2178 12.0569L18.5161 11.9081V10.3419L18.2178 10.1931C17.9269 10.0478 17.6822 9.82421 17.5113 9.54755C17.3403 9.2709 17.2499 8.95208 17.25 8.62687V7.625C17.25 6.92881 16.9735 6.26113 16.4812 5.76884C15.9889 5.27656 15.3212 5 14.625 5H12.875V6.75H14.625C14.8571 6.75 15.0796 6.84219 15.2437 7.00628C15.4078 7.17038 15.5 7.39294 15.5 7.625V8.62775C15.5 9.0927 15.5926 9.55301 15.7724 9.98177C15.9522 10.4105 16.2157 10.7992 16.5474 11.125C16.2157 11.4508 15.9522 11.8395 15.7724 12.2682C15.5926 12.697 15.5 13.1573 15.5 13.6222V14.625C15.5 14.8571 15.4078 15.0796 15.2437 15.2437C15.0796 15.4078 14.8571 15.5 14.625 15.5H12.875V17.25H14.625Z" fill="#46382C"/>
</svg>
