<svg width="26" height="24" viewBox="0 0 26 24" fill="none" xmlns="http://www.w3.org/2000/svg">
<path d="M15.4861 3.03743C15.7414 3.10922 15.9576 3.27943 16.0874 3.51065C16.2172 3.74187 16.2498 4.01516 16.1781 4.27043L11.7481 20.0584C11.7127 20.1849 11.6526 20.3031 11.5715 20.4064C11.4903 20.5097 11.3896 20.5959 11.2751 20.6603C11.1606 20.7246 11.0346 20.7658 10.9042 20.7814C10.7738 20.7971 10.6416 20.7869 10.5151 20.7514C10.3886 20.716 10.2704 20.656 10.1671 20.5748C10.0639 20.4936 9.9776 20.3929 9.91325 20.2785C9.8489 20.164 9.80773 20.0379 9.79209 19.9075C9.77645 19.7771 9.78665 19.6449 9.82211 19.5184L14.2521 3.73043C14.2875 3.60384 14.3476 3.48549 14.4288 3.38213C14.51 3.27878 14.6108 3.19245 14.7254 3.12808C14.84 3.06372 14.9662 3.02258 15.0967 3.00703C15.2273 2.99147 15.3596 3.0018 15.4861 3.03743ZM8.20711 6.94443C8.39458 7.13195 8.4999 7.38626 8.4999 7.65143C8.4999 7.91659 8.39458 8.1709 8.20711 8.35843L4.67211 11.8944L8.20711 15.4294C8.30002 15.5223 8.37373 15.6325 8.42404 15.7538C8.47435 15.8752 8.50027 16.0052 8.50031 16.1366C8.50036 16.2679 8.47453 16.398 8.42431 16.5194C8.37409 16.6407 8.30046 16.751 8.20761 16.8439C8.11477 16.9368 8.00453 17.0105 7.8832 17.0609C7.76187 17.1112 7.63181 17.1371 7.50046 17.1371C7.36912 17.1372 7.23904 17.1114 7.11768 17.0611C6.99631 17.0109 6.88602 16.9373 6.79311 16.8444L2.55011 12.6014C2.36264 12.4139 2.25732 12.1596 2.25732 11.8944C2.25732 11.6293 2.36264 11.375 2.55011 11.1874L6.79311 6.94443C6.98064 6.75696 7.23495 6.65164 7.50011 6.65164C7.76528 6.65164 8.01958 6.75696 8.20711 6.94443ZM17.7931 8.35843C17.6976 8.26618 17.6214 8.15583 17.569 8.03383C17.5166 7.91183 17.489 7.78061 17.4879 7.64783C17.4867 7.51505 17.512 7.38337 17.5623 7.26047C17.6126 7.13758 17.6868 7.02592 17.7807 6.93203C17.8746 6.83814 17.9863 6.76389 18.1092 6.7136C18.2321 6.66332 18.3637 6.63802 18.4965 6.63918C18.6293 6.64033 18.7605 6.66792 18.8825 6.72032C19.0045 6.77273 19.1149 6.84892 19.2071 6.94443L23.4501 11.1874C23.6376 11.375 23.7429 11.6293 23.7429 11.8944C23.7429 12.1596 23.6376 12.4139 23.4501 12.6014L19.2071 16.8444C19.0195 17.0319 18.765 17.1372 18.4998 17.1371C18.2345 17.137 17.9801 17.0316 17.7926 16.8439C17.6051 16.6563 17.4998 16.4018 17.4999 16.1366C17.5 15.8713 17.6055 15.6169 17.7931 15.4294L21.3281 11.8944L17.7931 8.35843Z" fill="#46382C"/>
</svg>
