<svg width="24" height="25" viewBox="0 0 24 25" fill="none" xmlns="http://www.w3.org/2000/svg">
<path d="M11.25 6.80255V14.3026C11.25 15.2971 10.8549 16.2509 10.1517 16.9542C9.44839 17.6575 8.49456 18.0526 7.5 18.0526C6.50544 18.0526 5.55161 17.6575 4.84835 16.9542C4.14509 16.2509 3.75 15.2971 3.75 14.3026V13.5526C3.75 13.3536 3.82902 13.1629 3.96967 13.0222C4.11032 12.8816 4.30109 12.8026 4.5 12.8026C4.69891 12.8026 4.88968 12.8816 5.03033 13.0222C5.17098 13.1629 5.25 13.3536 5.25 13.5526V14.3026C5.25 14.8993 5.48705 15.4716 5.90901 15.8935C6.33097 16.3155 6.90326 16.5526 7.5 16.5526C8.09674 16.5526 8.66903 16.3155 9.09099 15.8935C9.51295 15.4716 9.75 14.8993 9.75 14.3026V6.80255C9.75 6.60364 9.82902 6.41287 9.96967 6.27222C10.1103 6.13157 10.3011 6.05255 10.5 6.05255C10.6989 6.05255 10.8897 6.13157 11.0303 6.27222C11.171 6.41287 11.25 6.60364 11.25 6.80255ZM16.764 11.3521C15.1995 10.7656 14.25 10.3426 14.25 9.42755C14.25 8.04455 15.462 7.55255 16.5 7.55255C17.538 7.55255 18.75 8.04305 18.75 9.42755C18.75 9.62646 18.829 9.81723 18.9697 9.95788C19.1103 10.0985 19.3011 10.1776 19.5 10.1776C19.6989 10.1776 19.8897 10.0985 20.0303 9.95788C20.171 9.81723 20.25 9.62646 20.25 9.42755C20.2438 8.71264 20.0138 8.01763 19.5922 7.44024C19.1705 6.86285 18.5786 6.4321 17.8995 6.20855C16.9872 5.93048 16.0128 5.93048 15.1005 6.20855C14.4214 6.4321 13.8295 6.86285 13.4078 7.44024C12.9862 8.01763 12.7562 8.71264 12.75 9.42755C12.75 11.4481 14.6835 12.1726 16.236 12.7546C17.7885 13.3366 18.75 13.7656 18.75 14.6776C18.75 16.0621 17.538 16.5526 16.5 16.5526C15.462 16.5526 14.25 16.0636 14.25 14.6776C14.25 14.4786 14.171 14.2879 14.0303 14.1472C13.8897 14.0066 13.6989 13.9276 13.5 13.9276C13.3011 13.9276 13.1103 14.0066 12.9697 14.1472C12.829 14.2879 12.75 14.4786 12.75 14.6776C12.754 15.152 12.8568 15.6205 13.0516 16.0532C13.2465 16.4858 13.5293 16.8732 13.882 17.1906C14.2347 17.508 14.6496 17.7486 15.1003 17.897C15.551 18.0454 16.0277 18.0984 16.5 18.0526C16.9723 18.0984 17.449 18.0454 17.8997 17.897C18.3504 17.7486 18.7653 17.508 19.118 17.1906C19.4707 16.8732 19.7535 16.4858 19.9484 16.0532C20.1432 15.6205 20.246 15.152 20.25 14.6776C20.25 12.6526 18.3165 11.9341 16.764 11.3521Z" fill="#46382C"/>
</svg>
