<svg width="24" height="24" viewBox="0 0 24 24" fill="none" xmlns="http://www.w3.org/2000/svg">
<g clip-path="url(#clip0_94_595)">
<path d="M12 24C11.6578 24 11.3396 23.9108 11.0425 23.7566L8.01171 22.0154C7.55645 21.7729 7.78458 21.6848 7.92166 21.6407C8.53602 21.4423 8.65008 21.3983 9.28845 21.0446C9.35649 21.0005 9.44854 21.0226 9.51658 21.0666L11.8409 22.4121C11.931 22.4562 12.046 22.4562 12.1141 22.4121L21.2063 17.3188C21.2964 17.2747 21.3424 17.1866 21.3424 17.0764V6.91183C21.3424 6.80163 21.2974 6.71347 21.2063 6.66939L12.1141 1.59914C12.023 1.55506 11.909 1.55506 11.8409 1.59914L2.74867 6.66939C2.65762 6.71347 2.61159 6.82367 2.61159 6.91183V17.0764C2.61159 17.1645 2.65762 17.2747 2.74867 17.3188L5.23211 18.7083C6.57688 19.3696 7.41937 18.5981 7.41937 17.8267V7.79444C7.41937 7.6622 7.53344 7.52996 7.69353 7.52996H8.8552C8.99228 7.52996 9.12836 7.64016 9.12836 7.79444V17.8257C9.12836 19.5679 8.14879 20.5818 6.4398 20.5818C5.9155 20.5818 5.50526 20.5818 4.34359 20.0308L1.95121 18.7083C1.66313 18.5494 1.42256 18.3164 1.25426 18.0335C1.08596 17.7505 0.996004 17.4277 0.993652 17.0984V6.93387C0.993652 6.27267 1.35786 5.65554 1.95121 5.32494L11.0435 0.230644C11.3396 0.0790484 11.6674 0 12 0C12.3326 0 12.6604 0.0790484 12.9566 0.230644L22.0498 5.32393C22.6422 5.65454 23.0064 6.27166 23.0064 6.93287V17.0974C23.0064 17.7586 22.6422 18.3757 22.0498 18.7073L12.9576 23.7996C12.6554 23.9308 12.3294 23.9983 12 23.998M14.8026 17.0082C10.8153 17.0082 9.99486 15.245 9.99486 13.7453C9.99486 13.6131 10.1089 13.4808 10.268 13.4808H11.4527C11.5898 13.4808 11.7028 13.569 11.7028 13.7012C11.886 14.8693 12.4103 15.4424 14.8257 15.4424C16.7398 15.4424 17.5602 15.0236 17.5602 14.0318C17.5602 13.4588 17.3321 13.04 14.3474 12.7535C11.8629 12.51 10.314 11.9821 10.314 10.0636C10.314 8.27732 11.8629 7.21839 14.4614 7.21839C17.3781 7.21839 18.814 8.18916 18.9961 10.306C18.9938 10.3777 18.9697 10.4469 18.927 10.5044C18.882 10.5485 18.814 10.5925 18.7449 10.5925H17.5602C17.5027 10.5911 17.4472 10.571 17.402 10.5353C17.3569 10.4995 17.3246 10.45 17.3101 10.3942C17.0359 9.18197 16.3295 8.78425 14.4614 8.78425C12.3642 8.78425 12.1141 9.48953 12.1141 10.0195C12.1141 10.6587 12.4103 10.857 15.2359 11.2097C18.0385 11.5623 19.3603 12.0692 19.3603 13.9647C19.3373 15.9062 17.6973 17.0082 14.8026 17.0082Z" fill="#D2C2AD"/>
</g>
<defs>
<clipPath id="clip0_94_595">
<rect width="24" height="24" fill="white"/>
</clipPath>
</defs>
</svg>
