<svg width="24" height="24" viewBox="0 0 24 24" fill="none" xmlns="http://www.w3.org/2000/svg">
<path d="M14.4406 5.69876L4.19857 15.9388C3.89404 16.2432 3.69589 16.6377 3.63357 17.0638L3.08057 20.8378L6.85557 20.2848C7.28173 20.2222 7.6763 20.0236 7.98057 19.7188L18.2206 9.47876M14.4406 5.69876L16.6696 3.46876C16.8181 3.32015 16.9945 3.20226 17.1887 3.12183C17.3828 3.0414 17.5909 3 17.8011 3C18.0112 3 18.2193 3.0414 18.4134 3.12183C18.6076 3.20226 18.784 3.32015 18.9326 3.46876L20.4506 4.98676C20.5992 5.13534 20.7171 5.31174 20.7975 5.50588C20.8779 5.70003 20.9193 5.90811 20.9193 6.11826C20.9193 6.3284 20.8779 6.53649 20.7975 6.73064C20.7171 6.92478 20.5992 7.10118 20.4506 7.24976L18.2206 9.47876M14.4406 5.69876L18.2206 9.47876" stroke="#46382C" stroke-width="1.5" stroke-linecap="round" stroke-linejoin="round"/>
</svg>
