<svg width="24" height="22" viewBox="0 0 24 22" fill="none" xmlns="http://www.w3.org/2000/svg">
<path d="M23.9995 11C23.9995 11.3779 23.9175 11.7317 23.7534 12.0614C23.5894 12.391 23.3667 12.6926 23.0855 12.9659C22.8042 13.2393 22.4878 13.4926 22.1363 13.7258C21.7847 13.959 21.4253 14.164 21.0582 14.3409C20.691 14.5178 20.3238 14.6786 19.9566 14.8233C19.5894 14.9681 19.2691 15.0806 18.9957 15.161C19.1129 15.6676 19.2066 16.1742 19.277 16.6807C19.3473 17.1873 19.3824 17.6979 19.3824 18.2125C19.3824 18.6386 19.3473 19.0768 19.277 19.5271C19.2066 19.9774 19.0738 20.3834 18.8785 20.7453C18.6832 21.1071 18.4215 21.4086 18.0934 21.6498C17.7653 21.8911 17.3434 22.0077 16.8278 21.9996C16.3981 21.9996 15.9606 21.9152 15.5153 21.7463C15.07 21.5775 14.6364 21.3564 14.2146 21.083C13.7927 20.8096 13.3943 20.5201 13.0193 20.2146C12.6443 19.909 12.3044 19.6075 11.9998 19.31C11.7029 19.5995 11.367 19.901 10.992 20.2146C10.617 20.5282 10.2146 20.8176 9.78496 21.083C9.35528 21.3483 8.92169 21.5654 8.4842 21.7343C8.04671 21.9031 7.60922 21.9916 7.17173 21.9996C6.66393 21.9996 6.24597 21.883 5.91785 21.6498C5.58973 21.4167 5.32802 21.1192 5.13271 20.7573C4.9374 20.3955 4.80459 19.9854 4.73428 19.5271C4.66397 19.0688 4.62491 18.6306 4.61709 18.2125C4.61709 17.6979 4.65225 17.1873 4.72256 16.6807C4.79287 16.1742 4.88662 15.6676 5.0038 15.161C4.71475 15.0726 4.39444 14.96 4.04289 14.8233C3.69133 14.6866 3.32806 14.5298 2.95307 14.353C2.57807 14.1761 2.2148 13.971 1.86324 13.7378C1.51169 13.5047 1.19919 13.2514 0.925762 12.978C0.65233 12.7046 0.429679 12.3991 0.257807 12.0614C0.0859358 11.7237 0 11.3699 0 11C0 10.6221 0.0820296 10.2683 0.246089 9.93863C0.410148 9.60897 0.6328 9.30744 0.914044 9.03406C1.19529 8.76068 1.51169 8.5074 1.86324 8.27422C2.2148 8.04104 2.57417 7.836 2.94135 7.65911C3.30853 7.48222 3.67571 7.3214 4.04289 7.17667C4.41007 7.03194 4.73037 6.91937 5.0038 6.83896C4.88662 6.3324 4.79287 5.82584 4.72256 5.31928C4.65225 4.81272 4.61709 4.30214 4.61709 3.78754C4.61709 3.36138 4.65225 2.92317 4.72256 2.47289C4.79287 2.02261 4.92568 1.61656 5.12099 1.25473C5.3163 0.892901 5.57801 0.591377 5.90613 0.350157C6.23425 0.108938 6.65611 -0.00765159 7.17173 0.000389064C7.60141 0.000389064 8.0389 0.0848159 8.4842 0.25367C8.92951 0.422523 9.36309 0.643641 9.78496 0.917023C10.2068 1.19041 10.6053 1.47987 10.9802 1.78541C11.3552 2.09096 11.6951 2.3965 11.9998 2.70205C12.2966 2.41258 12.6326 2.11106 13.0075 1.79747C13.3825 1.48389 13.7849 1.19041 14.2146 0.917023C14.6442 0.643641 15.0778 0.426544 15.5153 0.265731C15.9528 0.104918 16.3903 0.0164704 16.8278 0.000389064C17.3356 0.000389064 17.7535 0.116979 18.0817 0.350157C18.4098 0.583336 18.6715 0.88084 18.8668 1.24267C19.0621 1.6045 19.1949 2.01457 19.2652 2.47289C19.3355 2.93121 19.3746 3.36942 19.3824 3.78754C19.3824 4.30214 19.3473 4.81272 19.277 5.31928C19.2066 5.82584 19.1129 6.3324 18.9957 6.83896C19.277 6.92741 19.5973 7.03998 19.9566 7.17667C20.316 7.31336 20.6793 7.47015 21.0464 7.64705C21.4136 7.82394 21.7769 8.02898 22.1363 8.26216C22.4956 8.49534 22.8081 8.74862 23.0737 9.022C23.3394 9.29538 23.562 9.60093 23.7417 9.93863C23.9214 10.2763 24.0073 10.6301 23.9995 11ZM16.8278 1.15824C16.4919 1.15824 16.1364 1.23865 15.7614 1.39946C15.3864 1.56028 15.0192 1.75727 14.6599 1.99045C14.3005 2.22363 13.9567 2.48093 13.6286 2.76235C13.3005 3.04378 13.0232 3.29304 12.7966 3.51013C13.1638 3.90413 13.5075 4.31018 13.8278 4.72829C14.1482 5.14641 14.4646 5.57658 14.777 6.01882C15.3161 6.06706 15.8473 6.13541 16.3708 6.22385C16.8942 6.3123 17.4137 6.42085 17.9293 6.5495C18.0309 6.09922 18.1129 5.64493 18.1754 5.18661C18.2379 4.72829 18.2692 4.26997 18.2692 3.81166C18.2692 3.57044 18.2535 3.29706 18.2223 2.99151C18.191 2.68597 18.1285 2.3965 18.0348 2.12312C17.941 1.84974 17.7965 1.62058 17.6012 1.43565C17.4059 1.25071 17.1481 1.15824 16.8278 1.15824ZM7.05454 12.375C6.92173 12.7046 6.80064 13.0303 6.69127 13.3519C6.5819 13.6735 6.47252 14.0072 6.36315 14.353C6.69908 14.4414 7.03501 14.5138 7.37094 14.57C7.70687 14.6263 8.04671 14.6786 8.39045 14.7268C8.14827 14.3409 7.91781 13.9549 7.69906 13.569C7.48032 13.183 7.26548 12.785 7.05454 12.375ZM6.36315 7.64705C6.46471 7.98476 6.57018 8.31844 6.67955 8.64811C6.78892 8.97778 6.91392 9.30744 7.05454 9.63711C7.25767 9.22704 7.4725 8.82902 7.69906 8.44307C7.92562 8.05712 8.15608 7.66715 8.39045 7.27316C8.04671 7.3214 7.70687 7.37367 7.37094 7.42995C7.03501 7.48624 6.69908 7.5586 6.36315 7.64705ZM7.64047 11C8.26546 12.3347 8.99201 13.6293 9.82011 14.8836C10.1873 14.9158 10.5506 14.9359 10.9099 14.9439C11.2693 14.952 11.6326 14.96 11.9998 14.9681C12.3669 14.9681 12.7302 14.964 13.0896 14.956C13.4489 14.948 13.8122 14.9238 14.1794 14.8836C15.0075 13.6293 15.7341 12.3347 16.359 11C16.0309 10.3165 15.6911 9.65721 15.3395 9.022C14.988 8.38679 14.6013 7.75158 14.1794 7.11637C13.8122 7.09224 13.4489 7.07214 13.0896 7.05606C12.7302 7.03998 12.3669 7.03194 11.9998 7.03194C11.6326 7.03194 11.2693 7.03998 10.9099 7.05606C10.5506 7.07214 10.1873 7.09224 9.82011 7.11637C9.40606 7.74354 9.02325 8.37473 8.6717 9.00994C8.32014 9.64515 7.9764 10.3085 7.64047 11ZM15.6091 14.7268C15.9528 14.6866 16.2926 14.6384 16.6286 14.5821C16.9645 14.5258 17.3004 14.4494 17.6364 14.353C17.5348 14.0152 17.4293 13.6856 17.32 13.364C17.2106 13.0423 17.0856 12.7127 16.945 12.375C16.7418 12.785 16.5309 13.183 16.3122 13.569C16.0934 13.9549 15.8591 14.3409 15.6091 14.7268ZM16.945 9.63711C17.0778 9.30744 17.1989 8.97778 17.3082 8.64811C17.4176 8.31844 17.527 7.98476 17.6364 7.64705C17.3004 7.56664 16.9645 7.4983 16.6286 7.44201C16.2926 7.38573 15.9528 7.32944 15.6091 7.27316C15.8434 7.65911 16.0739 8.04506 16.3005 8.43101C16.527 8.81696 16.7418 9.219 16.945 9.63711ZM13.3005 5.91027C13.0974 5.62884 12.8904 5.35948 12.6794 5.10218C12.4685 4.84488 12.2419 4.58356 11.9998 4.31822C11.7654 4.57552 11.5427 4.83282 11.3318 5.09012C11.1209 5.34742 10.9099 5.6208 10.699 5.91027C11.1287 5.88615 11.5623 5.87408 11.9998 5.87408C12.4294 5.87408 12.863 5.88615 13.3005 5.91027ZM5.73035 3.81166C5.73035 4.26997 5.7616 4.72829 5.8241 5.18661C5.8866 5.64493 5.96863 6.09922 6.07019 6.5495C6.5858 6.42085 7.10532 6.3123 7.62875 6.22385C8.15218 6.13541 8.68342 6.06706 9.22247 6.01882C9.52715 5.57658 9.83964 5.14641 10.16 4.72829C10.4803 4.31018 10.8279 3.90413 11.2029 3.51013C10.9685 3.285 10.6912 3.03573 10.3709 2.76235C10.0506 2.48897 9.71074 2.23569 9.35137 2.00251C8.992 1.76933 8.62092 1.56832 8.23811 1.39946C7.85531 1.23061 7.49985 1.1502 7.17173 1.15824C6.85142 1.15824 6.59752 1.25071 6.41003 1.43565C6.22253 1.62058 6.078 1.84572 5.97644 2.11106C5.87488 2.3764 5.80848 2.66586 5.77723 2.97945C5.74598 3.29304 5.73035 3.57044 5.73035 3.81166ZM5.28505 14.0514C5.4413 13.5288 5.61317 13.0142 5.80066 12.5076C5.98816 12.0011 6.19128 11.4985 6.41003 11C6.19128 10.5015 5.98816 9.99894 5.80066 9.49238C5.61317 8.98582 5.4413 8.47122 5.28505 7.94857C5.09755 8.00486 4.86709 8.08124 4.59366 8.17773C4.32022 8.27422 4.03117 8.39483 3.72649 8.53956C3.42181 8.68429 3.11322 8.84511 2.80072 9.022C2.48823 9.19889 2.21089 9.39187 1.96871 9.60093C1.72653 9.80998 1.52341 10.0311 1.35935 10.2643C1.19529 10.4975 1.11716 10.7427 1.12498 11C1.12498 11.2573 1.19919 11.5025 1.34763 11.7357C1.49606 11.9689 1.69528 12.19 1.94527 12.3991C2.19527 12.6081 2.47261 12.8011 2.77729 12.978C3.08197 13.1549 3.39056 13.3117 3.70305 13.4484C4.01554 13.5851 4.30851 13.7057 4.58194 13.8102C4.85537 13.9147 5.08974 13.9951 5.28505 14.0514ZM7.17173 20.8418C7.50766 20.8418 7.86312 20.7613 8.23811 20.6005C8.61311 20.4397 8.98029 20.2427 9.33965 20.0095C9.69902 19.7764 10.0428 19.5231 10.3709 19.2497C10.699 18.9763 10.9763 18.7271 11.2029 18.5019C10.8357 18.1079 10.492 17.7019 10.1717 17.2838C9.85136 16.8657 9.53496 16.4315 9.22247 15.9812C8.69123 15.9329 8.1639 15.8646 7.64047 15.7761C7.11704 15.6877 6.59362 15.5832 6.07019 15.4626C5.96863 15.9128 5.8866 16.3631 5.8241 16.8134C5.7616 17.2637 5.73035 17.722 5.73035 18.1883C5.73035 18.4376 5.74207 18.715 5.76551 19.0205C5.78895 19.3261 5.85535 19.6156 5.96472 19.8889C6.0741 20.1623 6.21862 20.3875 6.39831 20.5644C6.57799 20.7412 6.8358 20.8337 7.17173 20.8418ZM10.699 16.1018C11.1052 16.6566 11.5388 17.1873 11.9998 17.6938C12.4529 17.1873 12.8865 16.6566 13.3005 16.1018C12.863 16.1259 12.4294 16.138 11.9998 16.138C11.5545 16.138 11.1209 16.1259 10.699 16.1018ZM18.2692 18.1883C18.2692 17.73 18.2379 17.2757 18.1754 16.8255C18.1129 16.3752 18.0309 15.9209 17.9293 15.4626C17.4059 15.5832 16.8825 15.6877 16.359 15.7761C15.8356 15.8646 15.3083 15.9329 14.777 15.9812C14.4724 16.4234 14.1599 16.8536 13.8396 17.2717C13.5193 17.6898 13.1716 18.0999 12.7966 18.5019C13.031 18.7271 13.3083 18.9723 13.6286 19.2376C13.9489 19.503 14.2888 19.7563 14.6481 19.9975C15.0075 20.2387 15.3786 20.4397 15.7614 20.6005C16.1442 20.7613 16.4997 20.8418 16.8278 20.8418C17.1481 20.8418 17.402 20.7533 17.5895 20.5764C17.777 20.3995 17.9215 20.1744 18.0231 19.901C18.1246 19.6276 18.191 19.3382 18.2223 19.0326C18.2535 18.7271 18.2692 18.4456 18.2692 18.1883ZM18.7145 14.0514C18.902 13.9951 19.1324 13.9188 19.4059 13.8223C19.6793 13.7258 19.9723 13.6052 20.2847 13.4604C20.5972 13.3157 20.9058 13.1549 21.2105 12.978C21.5152 12.8011 21.7925 12.6081 22.0425 12.3991C22.2925 12.19 22.4917 11.9689 22.6402 11.7357C22.7886 11.5025 22.8667 11.2573 22.8745 11C22.8745 10.7427 22.7964 10.4975 22.6402 10.2643C22.4839 10.0311 22.2847 9.80998 22.0425 9.60093C21.8003 9.39187 21.523 9.19889 21.2105 9.022C20.898 8.84511 20.5894 8.68831 20.2847 8.55162C19.9801 8.41493 19.6871 8.29432 19.4059 8.18979C19.1246 8.08526 18.8941 8.00486 18.7145 7.94857C18.5582 8.47122 18.3863 8.98582 18.1988 9.49238C18.0114 9.99894 17.8082 10.5015 17.5895 11C17.8082 11.4985 18.0114 12.0011 18.1988 12.5076C18.3863 13.0142 18.5582 13.5288 18.7145 14.0514ZM11.9998 13.3036C11.6951 13.3036 11.406 13.2433 11.1326 13.1227C10.8592 13.0021 10.6248 12.8373 10.4295 12.6282C10.2342 12.4192 10.074 12.1739 9.94902 11.8925C9.82402 11.6111 9.76543 11.3136 9.77324 11C9.77324 10.6864 9.83183 10.3889 9.94902 10.1075C10.0662 9.82606 10.2224 9.58485 10.4178 9.38383C10.6131 9.18281 10.8513 9.01798 11.1326 8.88933C11.4138 8.76068 11.7029 8.70037 11.9998 8.70841C12.3044 8.70841 12.5935 8.76872 12.8669 8.88933C13.1404 9.00994 13.3747 9.17075 13.57 9.37177C13.7653 9.57278 13.9255 9.81802 14.0505 10.1075C14.1755 10.397 14.2341 10.6945 14.2263 11C14.2263 11.3136 14.1677 11.6111 14.0505 11.8925C13.9333 12.1739 13.7771 12.4192 13.5818 12.6282C13.3864 12.8373 13.1482 13.0021 12.8669 13.1227C12.5857 13.2433 12.2966 13.3036 11.9998 13.3036Z" fill="#D2C2AD"/>
</svg>
