<svg width="24" height="20" viewBox="0 0 24 20" fill="none" xmlns="http://www.w3.org/2000/svg">
<path d="M12 4C8.4 4 7.167 6.667 7 8C7 8 7.819 6.412 9.863 6.412C12.363 6.412 12.567 10 17.067 10C20.712 10 21.833 7.517 22 6.276C22 6.276 21.22 7.679 19.22 7.679C16.73 7.679 16.413 4 12 4ZM7 10C3.4 10 2.167 12.667 2 14C2 14 2.819 12.412 4.863 12.412C7.363 12.412 7.567 16 12.067 16C15.712 16 16.833 13.517 17 12.275C17 12.275 16.22 13.679 14.22 13.679C11.73 13.679 11.413 10 7 10Z" stroke="#46382C" stroke-width="1.5" stroke-linejoin="round"/>
</svg>
