<svg width="25" height="25" viewBox="0 0 25 25" fill="none" xmlns="http://www.w3.org/2000/svg">
<path d="M20.2 13V12.7328C20.2 11.5552 19.2448 10.6 18.0672 10.6H16.2C15.5635 10.6 14.953 10.8529 14.5029 11.3029C14.0529 11.753 13.8 12.3635 13.8 13C13.8 13.6365 14.0529 14.247 14.5029 14.6971C14.953 15.1471 15.5635 15.4 16.2 15.4H17.8C18.4365 15.4 19.047 15.6529 19.4971 16.1029C19.9471 16.553 20.2 17.1635 20.2 17.8C20.2 18.4365 19.9471 19.047 19.4971 19.4971C19.047 19.9471 18.4365 20.2 17.8 20.2H16.2C15.5635 20.2 14.953 19.9471 14.5029 19.4971C14.0529 19.047 13.8 18.4365 13.8 17.8M13 10.6H5M9 10.6V21M1 1H23.4V23.4H1V1Z" stroke="#46382C"/>
</svg>
