<svg width="165" height="165" viewBox="0 0 165 165" fill="none" xmlns="http://www.w3.org/2000/svg">
<g filter="url(#filter0_d_309_1779)">
<path d="M82.5 165C80.1474 165 77.9598 164.387 75.9168 163.326L55.0803 151.356C51.9504 149.689 53.5188 149.083 54.4612 148.78C58.6849 147.416 59.4691 147.113 63.8579 144.682C64.3257 144.379 64.9586 144.53 65.4263 144.833L81.4062 154.083C82.0253 154.386 82.8164 154.386 83.2842 154.083L145.793 119.067C146.413 118.764 146.729 118.158 146.729 117.4V47.5188C146.729 46.7612 146.419 46.1551 145.793 45.8521L83.2842 10.9941C82.6582 10.691 81.874 10.691 81.4062 10.9941L18.8969 45.8521C18.2709 46.1551 17.9545 46.9127 17.9545 47.5188V117.4C17.9545 118.006 18.2709 118.764 18.8969 119.067L35.9705 128.62C45.2159 133.166 51.008 127.862 51.008 122.559V53.5868C51.008 52.6776 51.7922 51.7685 52.8928 51.7685H60.8793C61.8218 51.7685 62.7573 52.5261 62.7573 53.5868V122.552C62.7573 134.529 56.0228 141.5 44.2735 141.5C40.6689 141.5 37.8485 141.5 29.862 137.711L13.4144 128.62C11.4338 127.527 9.77993 125.925 8.62286 123.98C7.46579 122.035 6.84735 119.816 6.83118 117.552V47.6704C6.83118 43.1246 9.33513 38.8818 13.4144 36.6089L75.9237 1.58568C77.9595 0.543458 80.2134 0 82.5 0C84.7865 0 87.0404 0.543458 89.0763 1.58568L151.592 36.6021C155.665 38.8749 158.169 43.1177 158.169 47.6635V117.545C158.169 122.09 155.665 126.333 151.592 128.613L89.0832 163.622C87.0054 164.524 84.7646 164.989 82.5 164.986M101.768 116.932C74.3553 116.932 68.7145 104.81 68.7145 94.4989C68.7145 93.5897 69.4987 92.6806 70.5925 92.6806H78.7372C79.6796 92.6806 80.4569 93.2867 80.4569 94.1958C81.7158 102.227 85.3204 106.166 101.926 106.166C115.086 106.166 120.726 103.287 120.726 96.4687C120.726 92.5291 119.158 89.6501 98.6381 87.6802C81.5575 86.0065 70.9089 82.3768 70.9089 69.1871C70.9089 56.9066 81.5575 49.6264 99.4223 49.6264C119.474 49.6264 129.346 56.3005 130.598 70.8539C130.583 71.3464 130.417 71.8223 130.123 72.2176C129.814 72.5207 129.346 72.8237 128.871 72.8237H120.726C120.331 72.8142 119.949 72.6759 119.639 72.4299C119.329 72.1839 119.107 71.8434 119.007 71.46C117.122 63.1261 112.265 60.3917 99.4223 60.3917C85.0039 60.3917 83.2842 65.2405 83.2842 68.8841C83.2842 73.2783 85.3204 74.6421 104.747 77.0665C124.015 79.4909 133.102 82.976 133.102 96.0073C132.944 109.355 121.669 116.932 101.768 116.932Z" fill="#DDE6E3"/>
</g>
<defs>
<filter id="filter0_d_309_1779" x="6.83118" y="0" width="151.338" height="165" filterUnits="userSpaceOnUse" color-interpolation-filters="sRGB">
<feFlood flood-opacity="0" result="BackgroundImageFix"/>
<feColorMatrix in="SourceAlpha" type="matrix" values="0 0 0 0 0 0 0 0 0 0 0 0 0 0 0 0 0 0 127 0" result="hardAlpha"/>
<feOffset/>
<feComposite in2="hardAlpha" operator="out"/>
<feColorMatrix type="matrix" values="0 0 0 0 0.913725 0 0 0 0 0.843137 0 0 0 0 0.752941 0 0 0 1 0"/>
<feBlend mode="normal" in2="BackgroundImageFix" result="effect1_dropShadow_309_1779"/>
<feBlend mode="normal" in="SourceGraphic" in2="effect1_dropShadow_309_1779" result="shape"/>
</filter>
</defs>
</svg>
