<svg width="184" height="165" viewBox="0 0 184 165" fill="none" xmlns="http://www.w3.org/2000/svg">
<g filter="url(#filter0_d_309_1763)">
<path d="M183.996 82.5C183.996 85.3343 183.367 87.9878 182.11 90.4603C180.852 92.9328 179.145 95.1942 176.989 97.2446C174.832 99.2949 172.407 101.195 169.711 102.943C167.016 104.692 164.261 106.23 161.446 107.557C158.631 108.883 155.816 110.089 153.001 111.175C150.186 112.26 147.73 113.105 145.634 113.708C146.532 117.507 147.251 121.306 147.79 125.105C148.329 128.905 148.599 132.734 148.599 136.593C148.599 139.79 148.329 143.076 147.79 146.453C147.251 149.83 146.233 152.876 144.735 155.59C143.238 158.303 141.232 160.565 138.716 162.374C136.2 164.183 132.966 165.057 129.013 164.997C125.719 164.997 122.365 164.364 118.951 163.097C115.537 161.831 112.213 160.173 108.978 158.122C105.744 156.072 102.689 153.901 99.8144 151.609C96.9394 149.318 94.334 147.056 91.9981 144.825C89.7221 146.996 87.1467 149.258 84.2717 151.609C81.3968 153.961 78.3122 156.132 75.018 158.122C71.7238 160.112 68.3997 161.741 65.0456 163.007C61.6915 164.273 58.3374 164.937 54.9833 164.997C51.0901 164.997 47.8857 164.123 45.3702 162.374C42.8546 160.625 40.8481 158.394 39.3508 155.68C37.8534 152.966 36.8352 149.891 36.2961 146.453C35.7571 143.016 35.4576 139.729 35.3977 136.593C35.3977 132.734 35.6672 128.905 36.2063 125.105C36.7453 121.306 37.4641 117.507 38.3625 113.708C36.1464 113.044 33.6907 112.2 30.9955 111.175C28.3002 110.15 25.5151 108.974 22.6402 107.647C19.7652 106.32 16.9801 104.783 14.2849 103.034C11.5896 101.285 9.19382 99.3854 7.09751 97.335C5.0012 95.2846 3.2942 92.9931 1.97652 90.4603C0.658841 87.9275 0 85.274 0 82.5C0 79.6657 0.628893 77.0123 1.88668 74.5398C3.14447 72.0673 4.85146 69.8058 7.00767 67.7555C9.16388 65.7051 11.5896 63.8055 14.2849 62.0566C16.9801 60.3078 19.7353 58.77 22.5503 57.4433C25.3654 56.1166 28.1804 54.9105 30.9955 53.825C33.8105 52.7395 36.2662 51.8953 38.3625 51.2922C37.4641 47.493 36.7453 43.6938 36.2063 39.8946C35.6672 36.0954 35.3977 32.266 35.3977 28.4065C35.3977 25.2104 35.6672 21.9237 36.2063 18.5467C36.7453 15.1696 37.7636 12.1242 39.2609 9.41048C40.7583 6.69676 42.7648 4.43533 45.2803 2.62618C47.7959 0.817034 51.0302 -0.0573869 54.9833 0.00291798C58.2775 0.00291798 61.6316 0.636119 65.0456 1.90252C68.4595 3.16892 71.7837 4.82731 75.018 6.87768C78.2523 8.92804 81.3069 11.099 84.1819 13.3906C87.0568 15.6822 89.6622 17.9738 91.9981 20.2654C94.2741 18.0944 96.8496 15.833 99.7245 13.4811C102.599 11.1292 105.684 8.92804 108.978 6.87768C112.272 4.82731 115.597 3.19908 118.951 1.99298C122.305 0.786882 125.659 0.123528 129.013 0.00291798C132.906 0.00291798 136.111 0.877339 138.626 2.62618C141.142 4.37502 143.148 6.6063 144.646 9.32002C146.143 12.0337 147.161 15.1093 147.7 18.5467C148.239 21.984 148.539 25.2707 148.599 28.4065C148.599 32.266 148.329 36.0954 147.79 39.8946C147.251 43.6938 146.532 47.493 145.634 51.2922C147.79 51.9556 150.246 52.7999 153.001 53.825C155.756 54.8502 158.541 56.0262 161.356 57.3529C164.171 58.6796 166.956 60.2174 169.711 61.9662C172.467 63.715 174.862 65.6146 176.899 67.665C178.935 69.7154 180.642 72.007 182.02 74.5398C183.397 77.0726 184.056 79.726 183.996 82.5ZM129.013 8.68682C126.438 8.68682 123.712 9.28987 120.837 10.496C117.962 11.7021 115.147 13.1795 112.392 14.9284C109.637 16.6772 107.002 18.607 104.486 20.7176C101.971 22.8283 99.8443 24.6978 98.1074 26.326C100.922 29.2809 103.558 32.3263 106.013 35.4622C108.469 38.598 110.895 41.8244 113.291 45.1411C117.423 45.503 121.496 46.0155 125.509 46.6789C129.522 47.3423 133.505 48.1564 137.458 49.1213C138.237 45.7442 138.866 42.3369 139.345 38.8996C139.824 35.4622 140.064 32.0248 140.064 28.5874C140.064 26.7783 139.944 24.7279 139.704 22.4363C139.465 20.1448 138.985 17.9738 138.267 15.9234C137.548 13.873 136.44 12.1544 134.943 10.7673C133.445 9.38033 131.469 8.68682 129.013 8.68682ZM54.0848 92.8121C53.0666 95.2846 52.1383 97.727 51.2997 100.139C50.4612 102.551 49.6227 105.054 48.7842 107.647C51.3596 108.31 53.9351 108.853 56.5106 109.275C59.086 109.698 61.6915 110.089 64.3268 110.451C62.4701 107.557 60.7032 104.662 59.0261 101.767C57.3491 98.8728 55.702 95.8877 54.0848 92.8121ZM48.7842 57.3529C49.5628 59.8857 50.3714 62.3883 51.2099 64.8608C52.0484 67.3333 53.0067 69.8058 54.0848 72.2783C55.6421 69.2028 57.2892 66.2177 59.0261 63.3231C60.7631 60.4284 62.53 57.5036 64.3268 54.5487C61.6915 54.9105 59.086 55.3025 56.5106 55.7246C53.9351 56.1468 51.3596 56.6895 48.7842 57.3529ZM58.5769 82.5C63.3685 92.5106 68.9387 102.22 75.2875 111.627C78.1026 111.868 80.8877 112.019 83.6428 112.08C86.398 112.14 89.1831 112.2 91.9981 112.26C94.8132 112.26 97.5983 112.23 100.353 112.17C103.109 112.11 105.894 111.929 108.709 111.627C115.058 102.22 120.628 92.5106 125.419 82.5C122.904 77.3741 120.298 72.4291 117.603 67.665C114.908 62.9009 111.943 58.1368 108.709 53.3727C105.894 53.1918 103.109 53.0411 100.353 52.9205C97.5983 52.7999 94.8132 52.7395 91.9981 52.7395C89.1831 52.7395 86.398 52.7999 83.6428 52.9205C80.8877 53.0411 78.1026 53.1918 75.2875 53.3727C72.1131 58.0765 69.1783 62.8105 66.483 67.5745C63.7878 72.3386 61.1524 77.3138 58.5769 82.5ZM119.669 110.451C122.305 110.15 124.91 109.788 127.486 109.366C130.061 108.944 132.637 108.371 135.212 107.647C134.433 105.114 133.625 102.642 132.786 100.23C131.948 97.8174 130.99 95.3449 129.911 92.8121C128.354 95.8877 126.737 98.8728 125.06 101.767C123.383 104.662 121.586 107.557 119.669 110.451ZM129.911 72.2783C130.93 69.8058 131.858 67.3333 132.697 64.8608C133.535 62.3883 134.374 59.8857 135.212 57.3529C132.637 56.7498 130.061 56.2372 127.486 55.8151C124.91 55.393 122.305 54.9708 119.669 54.5487C121.466 57.4433 123.233 60.338 124.97 63.2326C126.707 66.1272 128.354 69.1425 129.911 72.2783ZM101.971 44.327C100.413 42.2163 98.8261 40.1961 97.209 38.2664C95.5918 36.3366 93.8549 34.3767 91.9981 32.3866C90.2013 34.3164 88.4943 36.2462 86.8771 38.1759C85.26 40.1057 83.6428 42.156 82.0257 44.327C85.3199 44.1461 88.644 44.0556 91.9981 44.0556C95.2923 44.0556 98.6165 44.1461 101.971 44.327ZM43.9327 28.5874C43.9327 32.0248 44.1723 35.4622 44.6514 38.8996C45.1306 42.3369 45.7595 45.7442 46.5381 49.1213C50.4912 48.1564 54.4742 47.3423 58.4871 46.6789C62.5 46.0155 66.5729 45.503 70.7056 45.1411C73.0415 41.8244 75.4373 38.598 77.893 35.4622C80.3486 32.3263 83.0139 29.2809 85.8889 26.326C84.092 24.6375 81.9658 22.768 79.5101 20.7176C77.0544 18.6673 74.449 16.7677 71.6939 15.0188C68.9387 13.27 66.0937 11.7624 63.1589 10.496C60.224 9.22957 57.4988 8.62652 54.9833 8.68682C52.5276 8.68682 50.581 9.38033 49.1435 10.7673C47.7061 12.1544 46.598 13.8429 45.8194 15.833C45.0408 17.823 44.5316 19.994 44.2921 22.3459C44.0525 24.6978 43.9327 26.7783 43.9327 28.5874ZM40.5187 105.386C41.7166 101.466 43.0343 97.6064 44.4718 93.8072C45.9092 90.008 47.4665 86.2389 49.1435 82.5C47.4665 78.7611 45.9092 74.9921 44.4718 71.1928C43.0343 67.3936 41.7166 63.5341 40.5187 59.6143C39.0812 60.0364 37.3144 60.6093 35.218 61.333C33.1217 62.0567 30.9056 62.9612 28.5697 64.0467C26.2338 65.1322 23.868 66.3383 21.4722 67.665C19.0764 68.9917 16.9502 70.439 15.0934 72.007C13.2367 73.5749 11.6795 75.2333 10.4217 76.9821C9.16388 78.7309 8.56493 80.5703 8.62483 82.5C8.62483 84.4298 9.19382 86.2691 10.3318 88.0179C11.4698 89.7667 12.9971 91.4251 14.9138 92.993C16.8304 94.561 18.9566 96.0083 21.2925 97.335C23.6284 98.6617 25.9943 99.8377 28.39 100.863C30.7858 101.888 33.0319 102.793 35.1282 103.577C37.2245 104.361 39.0213 104.964 40.5187 105.386ZM54.9833 156.313C57.5587 156.313 60.2839 155.71 63.1589 154.504C66.0338 153.298 68.8489 151.82 71.604 150.072C74.3592 148.323 76.9945 146.423 79.5101 144.373C82.0257 142.322 84.1519 140.453 85.8889 138.764C83.0738 135.81 80.4385 132.764 77.9828 129.628C75.5271 126.492 73.1014 123.236 70.7056 119.859C66.6328 119.497 62.5899 118.984 58.5769 118.321C54.564 117.658 50.5511 116.874 46.5381 115.969C45.7595 119.346 45.1306 122.723 44.6514 126.1C44.1723 129.478 43.9327 132.915 43.9327 136.413C43.9327 138.282 44.0225 140.363 44.2022 142.654C44.3819 144.946 44.891 147.117 45.7295 149.167C46.5681 151.217 47.6761 152.906 49.0537 154.233C50.4313 155.559 52.4078 156.253 54.9833 156.313ZM82.0257 120.763C85.1402 124.924 88.4644 128.905 91.9981 132.704C95.472 128.905 98.7962 124.924 101.971 120.763C98.6165 120.944 95.2923 121.035 91.9981 121.035C88.5841 121.035 85.26 120.944 82.0257 120.763ZM140.064 136.413C140.064 132.975 139.824 129.568 139.345 126.191C138.866 122.814 138.237 119.407 137.458 115.969C133.445 116.874 129.432 117.658 125.419 118.321C121.406 118.984 117.364 119.497 113.291 119.859C110.955 123.176 108.559 126.402 106.103 129.538C103.648 132.674 100.982 135.749 98.1074 138.764C99.9042 140.453 102.03 142.292 104.486 144.282C106.942 146.272 109.547 148.172 112.302 149.981C115.058 151.79 117.903 153.298 120.837 154.504C123.772 155.71 126.497 156.313 129.013 156.313C131.469 156.313 133.415 155.65 134.853 154.323C136.29 152.996 137.398 151.308 138.177 149.258C138.956 147.207 139.465 145.036 139.704 142.745C139.944 140.453 140.064 138.342 140.064 136.413ZM143.478 105.386C144.915 104.964 146.682 104.391 148.778 103.667C150.875 102.943 153.121 102.039 155.516 100.953C157.912 99.8678 160.278 98.6617 162.614 97.335C164.95 96.0083 167.076 94.561 168.993 92.993C170.909 91.4251 172.437 89.7667 173.575 88.0179C174.713 86.2691 175.312 84.4298 175.371 82.5C175.371 80.5703 174.772 78.7309 173.575 76.9821C172.377 75.2333 170.849 73.5749 168.993 72.007C167.136 70.439 165.01 68.9917 162.614 67.665C160.218 66.3383 157.852 65.1624 155.516 64.1372C153.18 63.112 150.934 62.2074 148.778 61.4235C146.622 60.6395 144.855 60.0364 143.478 59.6143C142.28 63.5341 140.962 67.3936 139.525 71.1928C138.087 74.9921 136.53 78.7611 134.853 82.5C136.53 86.2389 138.087 90.008 139.525 93.8072C140.962 97.6064 142.28 101.466 143.478 105.386ZM91.9981 99.7774C89.6622 99.7774 87.4461 99.3251 85.3498 98.4205C83.2535 97.5159 81.4567 96.2797 79.9593 94.7117C78.462 93.1438 77.2341 91.3045 76.2758 89.1938C75.3175 87.0832 74.8683 84.8519 74.9282 82.5C74.9282 80.1481 75.3774 77.9168 76.2758 75.8062C77.1742 73.6955 78.3721 71.8863 79.8695 70.3787C81.3668 68.8711 83.1936 67.6349 85.3498 66.67C87.506 65.7051 89.7221 65.2528 91.9981 65.3131C94.334 65.3131 96.5501 65.7654 98.6464 66.67C100.743 67.5745 102.54 68.7806 104.037 70.2883C105.534 71.7959 106.762 73.6352 107.72 75.8062C108.679 77.9771 109.128 80.2084 109.068 82.5C109.068 84.8519 108.619 87.0832 107.72 89.1938C106.822 91.3045 105.624 93.1438 104.127 94.7117C102.629 96.2797 100.803 97.5159 98.6464 98.4205C96.4902 99.3251 94.2741 99.7774 91.9981 99.7774Z" fill="#DDE6E3"/>
</g>
<defs>
<filter id="filter0_d_309_1763" x="0" y="0" width="184" height="165" filterUnits="userSpaceOnUse" color-interpolation-filters="sRGB">
<feFlood flood-opacity="0" result="BackgroundImageFix"/>
<feColorMatrix in="SourceAlpha" type="matrix" values="0 0 0 0 0 0 0 0 0 0 0 0 0 0 0 0 0 0 127 0" result="hardAlpha"/>
<feOffset/>
<feComposite in2="hardAlpha" operator="out"/>
<feColorMatrix type="matrix" values="0 0 0 0 0.913725 0 0 0 0 0.843137 0 0 0 0 0.752941 0 0 0 1 0"/>
<feBlend mode="normal" in2="BackgroundImageFix" result="effect1_dropShadow_309_1763"/>
<feBlend mode="normal" in="SourceGraphic" in2="effect1_dropShadow_309_1763" result="shape"/>
</filter>
</defs>
</svg>
