<svg width="14" height="19" viewBox="0 0 14 19" fill="none" xmlns="http://www.w3.org/2000/svg">
<g opacity="0.2">
<path d="M1.08661 7.89071C1.08661 7.75692 1.19303 7.64845 1.3243 7.64845H12.6658C12.797 7.64845 12.9035 7.75692 12.9035 7.89071C12.9035 8.02451 12.7971 8.13297 12.6658 8.13297H1.3243C1.19303 8.13297 1.08661 8.02451 1.08661 7.89071Z" fill="#9F6A42"/>
<path d="M7.23274 1.28051C7.33022 0.783745 7.029 0 7.029 0C7.029 0 8.41468 1.01684 8.14956 2.00729C7.97077 2.6752 7.09423 3.19196 6.85922 3.84153C6.72421 4.2147 6.68944 4.84517 6.68944 4.84517C6.68944 4.84517 5.97634 4.22222 5.97634 3.35701C5.97634 2.21494 7.029 2.31876 7.23274 1.28051Z" fill="#DAB895"/>
<path d="M4.53334 4.54916C4.31956 4.18821 3.70275 3.87911 3.70275 3.87911C3.70275 3.87911 5.11417 3.71083 5.49693 4.47099C5.75505 4.98361 5.50125 5.80266 5.71472 6.33619C5.83736 6.6427 6.16332 7.04991 6.16332 7.04991C6.16332 7.04991 5.38208 7.07528 4.90544 6.54377C4.27628 5.84217 4.98014 5.30357 4.53334 4.54916Z" fill="#DAB895"/>
<path d="M10.1324 5.43595C10.3147 5.22401 10.3021 4.60535 10.3021 4.60535C10.3021 4.60535 10.6698 5.29669 10.4379 5.81664C10.2682 6.19733 9.57339 6.53886 9.28342 6.78568C9.11684 6.92747 9.07968 7.27019 9.07968 7.27019C9.07968 7.27019 8.70765 6.85661 8.94388 6.43959C9.2557 5.88914 9.75125 5.87892 10.1324 5.43595Z" fill="#DAB895"/>
<path d="M9.40595 2.83789C9.59521 2.36944 9.50782 1.69581 9.50782 1.69581C9.50782 1.69581 10.2823 2.43579 10.0172 3.42623C9.75205 4.41667 9.27012 4.46448 8.45517 5.39891C8.08793 5.81998 8.18352 6.6102 8.18352 6.6102C8.18352 6.6102 7.47043 5.91803 7.47043 5.05282C7.47043 3.91075 8.93056 4.01457 9.40595 2.83789Z" fill="#DAB895"/>
<path d="M13.9886 8.61749H0.0324984C-0.347814 15.29 2.70374 18.3194 4.27706 19H9.77801C13.4182 16.7297 14.1018 11.1324 13.9886 8.61749Z" fill="url(#paint0_linear_142_1005)"/>
</g>
<defs>
<linearGradient id="paint0_linear_142_1005" x1="-2.68568e-07" y1="8.61749" x2="10.9115" y2="18.2054" gradientUnits="userSpaceOnUse">
<stop offset="0.206731" stop-color="#DAB895"/>
<stop offset="0.567308" stop-color="#9F6A42"/>
<stop offset="0.822115" stop-color="#844D2E"/>
<stop offset="1" stop-color="#5E3724"/>
</linearGradient>
</defs>
</svg>
