<svg width="24" height="24" viewBox="0 0 24 24" fill="none" xmlns="http://www.w3.org/2000/svg">
<path d="M15.729 3.88389C17.163 2.44389 19.261 2.41389 20.422 3.57989C21.586 4.74789 21.555 6.85989 20.119 8.29989L17.696 10.7329C17.5595 10.8745 17.4842 11.0641 17.4862 11.2608C17.4882 11.4574 17.5673 11.6454 17.7066 11.7843C17.8458 11.9231 18.0341 12.0017 18.2307 12.0032C18.4274 12.0046 18.6167 11.9287 18.758 11.7919L21.182 9.35889C23.093 7.43989 23.333 4.37689 21.485 2.52089C19.635 0.663893 16.578 0.905894 14.665 2.82489L9.81897 7.69189C7.90797 9.61089 7.66797 12.6739 9.51597 14.5289C9.58499 14.6007 9.66761 14.658 9.75902 14.6975C9.85043 14.737 9.94878 14.7579 10.0484 14.759C10.1479 14.7601 10.2467 14.7413 10.339 14.7039C10.4312 14.6664 10.5151 14.6109 10.5857 14.5406C10.6562 14.4704 10.7121 14.3868 10.75 14.2947C10.788 14.2026 10.8072 14.1039 10.8066 14.0044C10.8059 13.9048 10.7855 13.8063 10.7464 13.7147C10.7073 13.6231 10.6504 13.5403 10.579 13.4709C9.41497 12.3029 9.44697 10.1909 10.882 8.75089L15.729 3.88389Z" fill="white"/>
<path d="M14.485 9.46989C14.3444 9.32893 14.1536 9.24958 13.9545 9.2493C13.7555 9.24902 13.5644 9.32783 13.4235 9.46839C13.2825 9.60896 13.2032 9.79976 13.2029 9.99883C13.2026 10.1979 13.2814 10.3889 13.422 10.5299C14.586 11.6979 14.555 13.8089 13.119 15.2499L8.27197 20.1159C6.83697 21.5559 4.73897 21.5859 3.57797 20.4199C2.41397 19.2519 2.44597 17.1399 3.88097 15.6999L6.30497 13.2669C6.37451 13.1971 6.42961 13.1143 6.46714 13.0232C6.50467 12.9321 6.5239 12.8345 6.52371 12.736C6.52353 12.6375 6.50394 12.5399 6.46606 12.449C6.42819 12.358 6.37277 12.2754 6.30297 12.2059C6.23317 12.1364 6.15036 12.0813 6.05927 12.0437C5.96817 12.0062 5.87058 11.987 5.77206 11.9872C5.67353 11.9873 5.57601 12.0069 5.48506 12.0448C5.39411 12.0827 5.31151 12.1381 5.24197 12.2079L2.81797 14.6409C0.906971 16.5609 0.666971 19.6229 2.51497 21.4789C4.36497 23.3369 7.42197 23.0939 9.33497 21.1749L14.182 16.3079C16.093 14.3899 16.333 11.3249 14.485 9.46989Z" fill="white"/>
</svg>
