<svg width="24" height="27" viewBox="0 0 24 27" fill="none" xmlns="http://www.w3.org/2000/svg">
<path d="M2.76923 11.7V10.8H1.84615V11.7H2.76923ZM10.1538 11.7V10.8H9.23077V11.7H10.1538ZM10.1538 18.9H9.23077V19.8H10.1538V18.9ZM23.0769 6.3H24V5.9274L23.7305 5.6628L23.0769 6.3ZM17.5385 0.9L18.192 0.2628L17.9206 0H17.5385V0.9ZM2.76923 12.6H4.61538V10.8H2.76923V12.6ZM3.69231 19.8V15.3H1.84615V19.8H3.69231ZM3.69231 15.3V11.7H1.84615V15.3H3.69231ZM4.61538 14.4H2.76923V16.2H4.61538V14.4ZM5.53846 13.5C5.53846 13.7387 5.44121 13.9676 5.2681 14.1364C5.09499 14.3052 4.8602 14.4 4.61538 14.4V16.2C5.34983 16.2 6.0542 15.9155 6.57353 15.4092C7.09286 14.9028 7.38462 14.2161 7.38462 13.5H5.53846ZM4.61538 12.6C4.8602 12.6 5.09499 12.6948 5.2681 12.8636C5.44121 13.0324 5.53846 13.2613 5.53846 13.5H7.38462C7.38462 12.7839 7.09286 12.0972 6.57353 11.5908C6.0542 11.0845 5.34983 10.8 4.61538 10.8V12.6ZM9.23077 11.7V18.9H11.0769V11.7H9.23077ZM10.1538 19.8H12V18H10.1538V19.8ZM14.7692 17.1V13.5H12.9231V17.1H14.7692ZM12 10.8H10.1538V12.6H12V10.8ZM14.7692 13.5C14.7692 12.7839 14.4775 12.0972 13.9581 11.5908C13.4388 11.0845 12.7344 10.8 12 10.8V12.6C12.2448 12.6 12.4796 12.6948 12.6527 12.8636C12.8258 13.0324 12.9231 13.2613 12.9231 13.5H14.7692ZM12 19.8C12.7344 19.8 13.4388 19.5155 13.9581 19.0092C14.4775 18.5028 14.7692 17.8161 14.7692 17.1H12.9231C12.9231 17.3387 12.8258 17.5676 12.6527 17.7364C12.4796 17.9052 12.2448 18 12 18V19.8ZM16.6154 10.8V19.8H18.4615V10.8H16.6154ZM17.5385 12.6H22.1538V10.8H17.5385V12.6ZM17.5385 16.2H20.3077V14.4H17.5385V16.2ZM1.84615 9V2.7H0V9H1.84615ZM22.1538 6.3V9H24V6.3H22.1538ZM2.76923 1.8H17.5385V0H2.76923V1.8ZM16.8849 1.5372L22.4234 6.9372L23.7305 5.6628L18.192 0.2628L16.8849 1.5372ZM1.84615 2.7C1.84615 2.46131 1.94341 2.23239 2.11652 2.0636C2.28963 1.89482 2.52442 1.8 2.76923 1.8V0C2.03479 0 1.33042 0.284463 0.811089 0.790812C0.291757 1.29716 0 1.98392 0 2.7H1.84615ZM0 21.6V24.3H1.84615V21.6H0ZM2.76923 27H21.2308V25.2H2.76923V27ZM24 24.3V21.6H22.1538V24.3H24ZM21.2308 27C21.9652 27 22.6696 26.7155 23.1889 26.2092C23.7082 25.7028 24 25.0161 24 24.3H22.1538C22.1538 24.5387 22.0566 24.7676 21.8835 24.9364C21.7104 25.1052 21.4756 25.2 21.2308 25.2V27ZM0 24.3C0 25.0161 0.291757 25.7028 0.811089 26.2092C1.33042 26.7155 2.03479 27 2.76923 27V25.2C2.52442 25.2 2.28963 25.1052 2.11652 24.9364C1.94341 24.7676 1.84615 24.5387 1.84615 24.3H0Z" fill="white"/>
</svg>
