<svg width="24" height="24" viewBox="0 0 24 24" fill="none" xmlns="http://www.w3.org/2000/svg">
<path d="M20.972 11.291C20.8319 9.51904 20.1702 7.82825 19.0704 6.43186C17.9706 5.03547 16.4819 3.99601 14.7921 3.44457C13.1023 2.89312 11.2871 2.8544 9.57534 3.33327C7.86357 3.81214 6.33192 4.78716 5.17357 6.13537C4.01521 7.48359 3.28201 9.14462 3.06644 10.909C2.85087 12.6734 3.16257 14.4621 3.96225 16.0495C4.76192 17.637 6.01375 18.9521 7.55987 19.829C9.10598 20.7059 10.8771 21.1054 12.65 20.977M3.6 9H20.4M3.6 15H12.5M11.5 3C9.81534 5.69961 8.9222 8.81787 8.9222 12C8.9222 15.1821 9.81534 18.3004 11.5 21M12.5 3C14.188 5.70478 15.0813 8.82973 15.078 12.018M19 18V18.01M21.121 20.121C21.5406 19.7015 21.8265 19.1669 21.9423 18.585C22.0581 18.003 21.9988 17.3997 21.7717 16.8515C21.5447 16.3033 21.1602 15.8347 20.6668 15.505C20.1734 15.1753 19.5934 14.9994 19 14.9994C18.4066 14.9994 17.8266 15.1753 17.3332 15.505C16.8398 15.8347 16.4553 16.3033 16.2283 16.8515C16.0012 17.3997 15.9419 18.003 16.0577 18.585C16.1735 19.1669 16.4593 19.7015 16.879 20.121C17.297 20.5397 18.004 21.166 19 22C20.0513 21.11 20.7583 20.4837 21.121 20.121Z" stroke="white" stroke-width="2" stroke-linecap="round" stroke-linejoin="round"/>
</svg>
